<?xml version="1.0" encoding="UTF-8"?>
<svg version="1.1" xmlns="http://www.w3.org/2000/svg" width="1080" height="1080">
<path d="M0 0 C356.4 0 712.8 0 1080 0 C1080 356.4 1080 712.8 1080 1080 C723.6 1080 367.2 1080 0 1080 C0 723.6 0 367.2 0 0 Z " fill="#FEFEFE" transform="translate(0,0)"/>
<path d="M0 0 C6.66502627 3.76030008 10.21567533 8.52021943 12.625 15.875 C13.4488094 23.05391047 11.70373793 29.76695268 7.31640625 35.62109375 C6 37 6 37 3.625 38.875 C2.965 38.875 2.305 38.875 1.625 38.875 C-1.11704121 51.18518136 -2.79357095 63.48424666 -3.6875 76.0625 C-3.75479057 77.0050703 -3.82208115 77.94764061 -3.89141083 78.91877365 C-5.48282821 104.908752 0.16522278 124.94516606 17.31019592 144.57469177 C27.30411396 155.7684713 38.0183396 166.22225912 49 176.4375 C49.5522385 176.95175018 50.104477 177.46600036 50.67344999 177.99583387 C63.30206309 189.73724053 76.13024368 201.24498905 89.36086559 212.30688763 C90.1460875 212.97180627 90.93130941 213.63672491 91.74032593 214.3217926 C92.42207571 214.89129922 93.10382549 215.46080584 93.80623436 216.04757023 C97.75260331 220.01273866 98.96635136 223.30429041 98.9982605 228.89131165 C98.98747467 229.66814804 98.97668884 230.44498444 98.96557617 231.24536133 C98.96601425 232.07514496 98.96645233 232.90492859 98.96690369 233.75985718 C98.96481982 236.49249095 98.9415079 239.22450514 98.91796875 241.95703125 C98.91237136 243.85560267 98.90810194 245.75417843 98.90510559 247.65275574 C98.89366806 252.64232409 98.8642102 257.63162919 98.83099365 262.62109375 C98.80026928 267.71545857 98.78659519 272.80986605 98.77148438 277.90429688 C98.73933952 287.89464672 98.68815629 297.88480144 98.625 307.875 C99.70910156 307.85824219 100.79320312 307.84148437 101.91015625 307.82421875 C118.0435781 308.04475974 135.69471328 319.38503784 147.01879883 330.19750977 C154.06416279 337.55557266 159.38292434 345.96705177 164.5625 354.6875 C165.28805517 355.90088058 166.01389137 357.11409314 166.73999023 358.32714844 C167.87248745 360.2213912 169.00339257 362.11652088 170.13044739 364.01400757 C172.48951991 367.98543908 174.87748654 371.93756441 177.28959656 375.8769989 C178.88502932 378.48855908 180.46537356 381.10904298 182.04275513 383.73153687 C182.79946887 384.98317782 183.56197881 386.23133474 184.33053589 387.47573853 C191.92036263 399.78763374 191.92036263 399.78763374 190.625 406.875 C188.44925584 409.56605198 186.71434144 411.33032928 183.625 412.875 C181.55669185 412.9923731 179.48459337 413.04480538 177.41308594 413.06787109 C175.44767853 413.09196548 175.44767853 413.09196548 173.44256592 413.11654663 C171.99817566 413.12805363 170.55377799 413.13865881 169.109375 413.1484375 C168.37742165 413.15376118 167.64546829 413.15908485 166.89133453 413.16456985 C162.9951126 413.1913608 159.09892289 413.21069129 155.20263672 413.22509766 C152.01971625 413.2382718 148.83746236 413.26579866 145.65478516 413.30712891 C115.25087777 413.69275116 87.8988927 411.66487198 64.625 389.875 C57.34258607 382.57183 51.75596796 374.88443115 46.5625 366 C45.84607379 364.79512758 45.12860164 363.59087654 44.41015625 362.38720703 C42.52377388 359.21859006 40.65405517 356.04048145 38.78924561 352.85913086 C37.59975188 350.83197165 36.40621222 348.80724691 35.21142578 346.78320312 C18.98346357 319.29036425 18.98346357 319.29036425 19.625 312.875 C21.23498739 310.02955204 22.02082598 308.66995247 24.625 306.875 C28.43942042 306.04116107 32.16230031 306.17629976 36.05078125 306.2890625 C37.15350876 306.29755219 38.25623627 306.30604187 39.39237976 306.31478882 C42.90842091 306.34832905 46.42215411 306.42361599 49.9375 306.5 C52.32353455 306.5300985 54.70960511 306.5574745 57.09570312 306.58203125 C62.93958721 306.64812241 68.78212873 306.74847897 74.625 306.875 C76.23880536 295.4469656 77.24417431 284.02994019 77.75 272.5 C77.7877718 271.646978 77.82554359 270.79395599 77.86445999 269.91508484 C78.76310877 245.96897705 75.2253727 228.76633174 58.73168182 210.83441544 C54.1989696 206.0552256 49.44090631 201.54818955 44.5625 197.125 C43.86980263 196.49650398 43.17710526 195.86800797 42.46341705 195.22046661 C33.79755565 187.41437304 24.86528221 179.99088376 15.625 172.875 C6.31950403 182.18049597 4.34142972 205.60440368 1.625 217.875 C1.39329102 218.91060059 1.16158203 219.94620117 0.92285156 221.01318359 C-2.75645147 238.42042542 -2.76279586 255.90510437 -2.8125 273.625 C-2.82203201 275.38925323 -2.82203201 275.38925323 -2.83175659 277.18914795 C-2.8762235 290.43474236 -2.54935682 302.97497492 0.625 315.875 C0.82891357 316.77959961 1.03282715 317.68419922 1.24291992 318.61621094 C1.76645602 320.88265255 2.33505349 323.12838186 2.9375 325.375 C3.14914795 326.16487305 3.3607959 326.95474609 3.57885742 327.76855469 C14.11715236 365.99622916 39.14244351 393.43162992 66.5 420.875 C67.0878125 421.46558197 67.675625 422.05616394 68.28125 422.66464233 C73.97869474 428.38166012 79.66646818 434.01357974 85.80957031 439.25537109 C89.2794613 442.35102155 92.40460232 445.77904883 95.5625 449.1875 C96.26415283 449.94095703 96.96580566 450.69441406 97.6887207 451.47070312 C99.06595689 452.95208931 100.44128695 454.43525051 101.81445312 455.92041016 C103.26859781 457.49024327 104.73405699 459.04959217 106.203125 460.60546875 C123.20608922 478.89939877 136.59393493 500.25547779 148.77139282 521.94415283 C154.45867338 532.05468383 160.50378505 541.70838906 167.625 550.875 C168.3159375 551.76832031 169.006875 552.66164063 169.71875 553.58203125 C181.3880259 567.61863976 198.86412777 576.81688572 216.99316406 578.67651367 C230.71384629 579.7112924 245.48115181 580.4396 258.625 575.875 C259.70394531 575.52308594 260.78289062 575.17117188 261.89453125 574.80859375 C289.12318652 565.20407391 302.3638675 542.68241206 316.04296875 518.953125 C334.94901095 486.17988705 357.96012146 456.93875755 385.83520508 431.2512207 C392.27736651 425.27811488 398.53023503 419.12040327 404.75546265 412.92279053 C405.94225176 411.74207436 407.13085726 410.56318057 408.32144165 409.3862915 C415.57852051 402.2074142 422.31472798 394.91307467 428.625 386.875 C429.51592471 385.78977071 430.40872306 384.70607223 431.3046875 383.625 C445.75035382 365.52936106 455.16972817 345.06414761 461.11376953 322.78857422 C461.56886032 321.08513506 462.0465351 319.38776578 462.52734375 317.69140625 C471.12090885 284.81353779 467.60170668 247.70656084 460.625 214.875 C460.35827026 213.50021388 460.09268584 212.12520515 459.828125 210.75 C457.23253404 197.75886963 452.99470796 185.36396883 448.625 172.875 C447.7179834 173.67341309 446.8109668 174.47182617 445.87646484 175.29443359 C442.69553816 178.02763964 439.41138558 180.58591782 436.07275391 183.12353516 C428.89303551 188.6488249 421.99216106 194.44867976 415.25 200.5 C414.64296738 201.04422104 414.03593475 201.58844208 413.4105072 202.14915466 C396.73664505 217.292439 387.1452948 230.9453279 385.8255043 253.84790421 C385.08697602 271.51776169 386.46785495 289.34307901 388.625 306.875 C389.22777267 306.86611755 389.83054535 306.85723511 390.45158386 306.8480835 C396.72942617 306.75953878 403.00709088 306.69923611 409.28540039 306.65527344 C411.62792161 306.63516735 413.9703927 306.60787834 416.31274414 306.57324219 C419.68127823 306.52468159 423.04914831 306.50202078 426.41796875 306.484375 C427.46397751 306.46372986 428.50998627 306.44308472 429.58769226 306.42181396 C436.87260316 306.41956956 436.87260316 306.41956956 440.76293945 308.77441406 C443.15386308 311.47160914 443.58545655 312.43189665 443.91015625 316.0703125 C443.5868178 320.38444466 442.26386946 323.14663039 440.0625 326.75 C439.67046387 327.41854004 439.27842773 328.08708008 438.87451172 328.77587891 C437.47397231 331.15208687 436.04945703 333.51305671 434.625 335.875 C433.44060726 337.8641078 432.25706166 339.85372019 431.07421875 341.84375 C428.51008736 346.14823006 425.92774959 350.44106204 423.33203125 354.7265625 C421.06402047 358.47240099 418.82702811 362.23168394 416.63671875 366.0234375 C404.24050768 387.30466652 387.34294502 402.95771421 363.25732422 409.91394043 C347.52605667 414.03263475 331.61765488 413.55678933 315.4887085 413.39318848 C312.30473273 413.36868813 309.121092 413.37449256 305.93704987 413.38045502 C302.85202432 413.38352292 299.76720984 413.37141983 296.68223572 413.35432434 C295.21827005 413.34733063 293.75428059 413.34416537 292.29029846 413.34501648 C290.25791763 413.34321494 288.22559184 413.3195448 286.19335938 413.29492188 C285.04202515 413.28650269 283.89069092 413.2780835 282.70446777 413.26940918 C279.25386039 412.82746553 277.39342494 411.95181467 274.625 409.875 C272.10250751 406.09126127 271.8203186 403.24667455 272.625 398.875 C274.22963335 395.11361775 276.34267162 391.71737382 278.5 388.25 C279.11625244 387.22962646 279.73250488 386.20925293 280.36743164 385.15795898 C281.71485138 382.92860391 283.06806686 380.70381658 284.42919922 378.48291016 C286.76440148 374.66149075 289.04145531 370.8067088 291.31640625 366.94921875 C292.50756365 364.93653366 293.69970572 362.92443634 294.89239502 360.91265869 C295.66333579 359.61129651 296.43302075 358.30918942 297.20135498 357.00628662 C301.58401455 349.5890911 306.14510888 342.54734567 311.625 335.875 C312.50021318 334.72932949 313.3752495 333.58352382 314.25 332.4375 C325.51324264 319.59501963 342.05022663 311.17764667 358.625 307.875 C360.62484888 307.8504142 362.62519665 307.84695398 364.625 307.875 C364.6050145 306.30431763 364.6050145 306.30431763 364.58462524 304.7019043 C364.46279273 294.81528764 364.37295517 284.92882405 364.31412697 275.04162598 C364.28286525 269.9589093 364.24048686 264.87680047 364.17236328 259.79443359 C364.10698648 254.88605814 364.07125517 249.97826591 364.05573654 245.06948853 C364.04468301 243.20039696 364.02309744 241.33133595 363.99061966 239.4624939 C363.94681096 236.83628339 363.94107581 234.21245685 363.94384766 231.5859375 C363.922276 230.81988693 363.90070435 230.05383636 363.878479 229.26457214 C363.95002701 222.96507143 366.34480144 219.37384674 370.625 214.875 C373.49272837 212.13664408 376.49912623 209.59853448 379.55200195 207.06982422 C381.37007961 205.53023872 383.18590881 203.98799518 384.99980164 202.44348145 C386.43294488 201.22399559 386.43294488 201.22399559 387.89504051 199.97987366 C397.43361575 191.78473564 406.72270372 183.30608631 415.9375 174.75 C416.46791743 174.25800393 416.99833487 173.76600786 417.54482555 173.25910282 C453.6092652 139.76745545 453.6092652 139.76745545 467.19850159 93.73880005 C467.36742591 87.88569429 467.14699051 82.08980251 466.75 76.25 C466.68531651 75.2981356 466.62063301 74.34627121 466.55398941 73.36556244 C465.68765892 61.71658245 464.0633568 50.29782528 461.625 38.875 C461.00753906 38.58882813 460.39007812 38.30265625 459.75390625 38.0078125 C454.98867955 35.47218729 452.82900939 30.89802791 451.171875 25.97265625 C449.36580357 19.04508227 450.72750439 14.35905706 454.06640625 8.2109375 C457.50623413 3.05550625 461.742352 -0.19597806 467.625 -2.125 C474.97768363 -2.9971804 481.59867868 -2.70877908 487.625 1.875 C493.01867508 6.83865543 496.21588442 12.30984996 497.0625 19.6875 C496.83576944 24.76429308 495.18309893 29.51118417 492.625 33.875 C491.61982834 34.73013184 490.61465668 35.58526367 489.57902527 36.46630859 C486.38054373 39.63373348 485.91871304 41.97654898 485.8483429 46.39331055 C485.87374397 47.63721558 485.87374397 47.63721558 485.8996582 48.90625 C485.89094193 50.23910034 485.89094193 50.23910034 485.88204956 51.59887695 C485.8692811 54.5249216 485.89792932 57.44908533 485.92578125 60.375 C485.92214625 62.41472117 485.9154428 64.45443898 485.9058075 66.49414062 C485.88674644 71.85797532 485.90076296 77.22116235 485.92431641 82.58496094 C485.95871598 91.16956447 485.95289664 99.75400719 485.9281826 108.33862305 C485.92581415 111.33339554 485.94360735 114.32756862 485.9634552 117.32226562 C485.96370339 119.16276045 485.96330549 121.00325552 485.9621582 122.84375 C485.97301956 123.67302002 485.98388092 124.50229004 485.99507141 125.35668945 C485.96629748 131.11327461 484.8961412 135.28635839 480.98339844 139.74609375 C480.11763184 140.52146484 480.11763184 140.52146484 479.234375 141.3125 C478.60789062 141.89773438 477.98140625 142.48296875 477.3359375 143.0859375 C476.02009569 144.28644656 474.69704208 145.4790948 473.3671875 146.6640625 C469.61270522 150.02018876 469.61270522 150.02018876 468.48046875 154.6953125 C469.04701172 156.26925781 469.04701172 156.26925781 469.625 157.875 C469.98634033 158.91865723 469.98634033 158.91865723 470.35498047 159.98339844 C470.93811291 161.64530888 471.53826968 163.30130166 472.15136719 164.95239258 C480.96050333 188.7374753 486.70720154 213.69024966 489.625 238.875 C489.7273999 239.75220703 489.8297998 240.62941406 489.93530273 241.53320312 C490.84827651 250.68720063 490.81109979 259.86316458 490.81030273 269.05322266 C490.81247402 271.84163037 490.83064612 274.62963141 490.84960938 277.41796875 C491.04900832 341.45331412 464.05952684 387.80520559 420.140625 432.4453125 C417.87728047 434.69953444 415.55370602 436.82125051 413.12109375 438.890625 C407.02440859 444.15787912 401.39210136 449.92190046 395.69848633 455.61621094 C393.70088048 457.61163414 391.69540647 459.59891056 389.68945312 461.5859375 C382.53200045 468.71241587 375.87005242 475.92706405 369.625 483.875 C368.75178252 484.90422915 367.87183982 485.9278585 366.98046875 486.94140625 C354.69940904 501.08122094 345.4042267 517.34134532 336.10546875 533.51855469 C318.97821166 563.24122164 300.16646296 590.43237427 265.453125 600.13671875 C264.05320312 600.50216797 264.05320312 600.50216797 262.625 600.875 C261.87734375 601.08769531 261.1296875 601.30039062 260.359375 601.51953125 C243.29535321 606.18862383 221.83315472 605.64605658 204.625 601.875 C203.43648437 601.63007812 202.24796875 601.38515625 201.0234375 601.1328125 C172.8892524 594.55069466 152.97447579 575.45052888 137.90063477 551.53466797 C132.89021937 543.46138513 128.1083865 535.27351627 123.4375 527 C107.59684564 498.95395481 87.00972507 475.05022295 64.27172852 452.39135742 C62.42541754 450.55045292 60.58457727 448.70419728 58.74414062 446.85742188 C53.37883486 441.48932132 48.01934648 436.18488095 42.23754883 431.26049805 C36.124606 426.00827238 30.59638555 420.02240735 25.375 413.89453125 C24.17608204 412.51095851 22.94476535 411.15499357 21.6875 409.82421875 C-0.76840999 385.92353514 -15.92253913 356.72446433 -23.375 324.875 C-23.58672852 323.98748047 -23.79845703 323.09996094 -24.01660156 322.18554688 C-30.93151662 291.52321353 -29.8001402 255.71592792 -24.375 224.875 C-24.2198291 223.98087402 -24.0646582 223.08674805 -23.90478516 222.16552734 C-23.00366615 217.11430063 -21.98475046 212.09930185 -20.86474609 207.09228516 C-20.41110206 205.03844909 -19.99191573 202.98089812 -19.58203125 200.91796875 C-17.25883021 189.73021628 -13.5372103 178.99006728 -9.81591797 168.20556641 C-9.38811035 166.9582373 -8.96030273 165.7109082 -8.51953125 164.42578125 C-8.13128174 163.30856689 -7.74303223 162.19135254 -7.34301758 161.0402832 C-6.3876745 157.91644386 -5.57335574 155.14024072 -5.375 151.875 C-6.54349812 149.79771836 -6.54349812 149.79771836 -8.48828125 148.18359375 C-9.4947168 147.23129883 -9.4947168 147.23129883 -10.52148438 146.25976562 C-11.23626953 145.61716797 -11.95105469 144.97457031 -12.6875 144.3125 C-14.08607944 143.0267299 -15.47825774 141.73395488 -16.86328125 140.43359375 C-17.48759033 139.86954834 -18.11189941 139.30550293 -18.75512695 138.72436523 C-22.88610195 134.00814284 -22.64593502 128.92020909 -22.58276367 122.98901367 C-22.58156525 122.10380539 -22.58036682 121.21859711 -22.57913208 120.30656433 C-22.57598731 118.3886478 -22.5686871 116.47073455 -22.5576992 114.55284691 C-22.5428224 111.51306446 -22.54445223 108.47372097 -22.55134583 105.43391418 C-22.57015955 96.79263481 -22.57663641 88.15169669 -22.52954102 79.51049805 C-22.50190107 74.22003028 -22.50831279 68.93052186 -22.53655434 63.64006996 C-22.54080586 61.62871253 -22.5323785 59.61728548 -22.5108242 57.60603905 C-21.82950113 45.40160016 -21.82950113 45.40160016 -26.8059082 34.8293457 C-27.42560989 34.32031204 -28.04531158 33.81127838 -28.68379211 33.28681946 C-32.64927646 29.9764352 -33.24667812 24.86949455 -33.875 20 C-33.60141405 13.95731911 -30.66524166 8.41043837 -26.66015625 3.9765625 C-18.89766942 -2.98759417 -9.55709632 -4.44283551 0 0 Z " fill="#020202" transform="translate(308.375,245.125)"/>
<path d="M0 0 C6.66502627 3.76030008 10.21567533 8.52021943 12.625 15.875 C13.4488094 23.05391047 11.70373793 29.76695268 7.31640625 35.62109375 C6 37 6 37 3.625 38.875 C2.965 38.875 2.305 38.875 1.625 38.875 C-1.11704121 51.18518136 -2.79357095 63.48424666 -3.6875 76.0625 C-3.75479057 77.0050703 -3.82208115 77.94764061 -3.89141083 78.91877365 C-5.48282821 104.908752 0.16522278 124.94516606 17.31019592 144.57469177 C27.30411396 155.7684713 38.0183396 166.22225912 49 176.4375 C49.5522385 176.95175018 50.104477 177.46600036 50.67344999 177.99583387 C63.30206309 189.73724053 76.13024368 201.24498905 89.36086559 212.30688763 C90.1460875 212.97180627 90.93130941 213.63672491 91.74032593 214.3217926 C92.42207571 214.89129922 93.10382549 215.46080584 93.80623436 216.04757023 C97.75260331 220.01273866 98.96635136 223.30429041 98.9982605 228.89131165 C98.98747467 229.66814804 98.97668884 230.44498444 98.96557617 231.24536133 C98.96601425 232.07514496 98.96645233 232.90492859 98.96690369 233.75985718 C98.96481982 236.49249095 98.9415079 239.22450514 98.91796875 241.95703125 C98.91237136 243.85560267 98.90810194 245.75417843 98.90510559 247.65275574 C98.89366806 252.64232409 98.8642102 257.63162919 98.83099365 262.62109375 C98.80026928 267.71545857 98.78659519 272.80986605 98.77148438 277.90429688 C98.73933952 287.89464672 98.68815629 297.88480144 98.625 307.875 C99.70910156 307.85824219 100.79320312 307.84148437 101.91015625 307.82421875 C118.0435781 308.04475974 135.69471328 319.38503784 147.01879883 330.19750977 C154.06416279 337.55557266 159.38292434 345.96705177 164.5625 354.6875 C165.28805517 355.90088058 166.01389137 357.11409314 166.73999023 358.32714844 C167.87248745 360.2213912 169.00339257 362.11652088 170.13044739 364.01400757 C172.48951991 367.98543908 174.87748654 371.93756441 177.28959656 375.8769989 C178.88502932 378.48855908 180.46537356 381.10904298 182.04275513 383.73153687 C182.79946887 384.98317782 183.56197881 386.23133474 184.33053589 387.47573853 C191.92036263 399.78763374 191.92036263 399.78763374 190.625 406.875 C188.44925584 409.56605198 186.71434144 411.33032928 183.625 412.875 C181.55669185 412.9923731 179.48459337 413.04480538 177.41308594 413.06787109 C175.44767853 413.09196548 175.44767853 413.09196548 173.44256592 413.11654663 C171.99817566 413.12805363 170.55377799 413.13865881 169.109375 413.1484375 C168.37742165 413.15376118 167.64546829 413.15908485 166.89133453 413.16456985 C162.9951126 413.1913608 159.09892289 413.21069129 155.20263672 413.22509766 C152.01971625 413.2382718 148.83746236 413.26579866 145.65478516 413.30712891 C115.25087777 413.69275116 87.8988927 411.66487198 64.625 389.875 C57.34258607 382.57183 51.75596796 374.88443115 46.5625 366 C45.84607379 364.79512758 45.12860164 363.59087654 44.41015625 362.38720703 C42.52377388 359.21859006 40.65405517 356.04048145 38.78924561 352.85913086 C37.59975188 350.83197165 36.40621222 348.80724691 35.21142578 346.78320312 C18.98346357 319.29036425 18.98346357 319.29036425 19.625 312.875 C21.23498739 310.02955204 22.02082598 308.66995247 24.625 306.875 C28.43942042 306.04116107 32.16230031 306.17629976 36.05078125 306.2890625 C37.15350876 306.29755219 38.25623627 306.30604187 39.39237976 306.31478882 C42.90842091 306.34832905 46.42215411 306.42361599 49.9375 306.5 C52.32353455 306.5300985 54.70960511 306.5574745 57.09570312 306.58203125 C62.93958721 306.64812241 68.78212873 306.74847897 74.625 306.875 C76.23880536 295.4469656 77.24417431 284.02994019 77.75 272.5 C77.7877718 271.646978 77.82554359 270.79395599 77.86445999 269.91508484 C78.76310877 245.96897705 75.2253727 228.76633174 58.73168182 210.83441544 C54.1989696 206.0552256 49.44090631 201.54818955 44.5625 197.125 C43.86980263 196.49650398 43.17710526 195.86800797 42.46341705 195.22046661 C33.79755565 187.41437304 24.86528221 179.99088376 15.625 172.875 C-6.69619193 195.19619193 -2.92041131 255.07800257 -3.22814941 284.37966919 C-3.31478649 290.91752364 -3.64543173 297.37318362 -4.375 303.875 C-6.355 303.875 -8.335 303.875 -10.375 303.875 C-10.375 303.215 -10.375 302.555 -10.375 301.875 C-11.365 302.535 -12.355 303.195 -13.375 303.875 C-18.34859504 304.44574041 -20.13575429 304.63758268 -24.47119141 301.96972656 C-27.22233011 299.59433113 -27.83624342 297.9166796 -28.10375977 294.3137207 C-28.12279073 292.47613058 -28.10818857 290.63799487 -28.06640625 288.80078125 C-28.06630051 287.81226669 -28.06619476 286.82375214 -28.06608582 285.80528259 C-28.05536888 282.59818827 -27.99871594 279.39399816 -27.9375 276.1875 C-27.91428527 273.98601042 -27.89182572 271.78451276 -27.87011719 269.58300781 C-27.6702998 254.54057087 -26.98576337 239.71671136 -24.375 224.875 C-24.2198291 223.98087402 -24.0646582 223.08674805 -23.90478516 222.16552734 C-23.00366615 217.11430063 -21.98475046 212.09930185 -20.86474609 207.09228516 C-20.41110206 205.03844909 -19.99191573 202.98089812 -19.58203125 200.91796875 C-17.25883021 189.73021628 -13.5372103 178.99006728 -9.81591797 168.20556641 C-9.38811035 166.9582373 -8.96030273 165.7109082 -8.51953125 164.42578125 C-8.13128174 163.30856689 -7.74303223 162.19135254 -7.34301758 161.0402832 C-6.3876745 157.91644386 -5.57335574 155.14024072 -5.375 151.875 C-6.54349812 149.79771836 -6.54349812 149.79771836 -8.48828125 148.18359375 C-9.4947168 147.23129883 -9.4947168 147.23129883 -10.52148438 146.25976562 C-11.23626953 145.61716797 -11.95105469 144.97457031 -12.6875 144.3125 C-14.08607944 143.0267299 -15.47825774 141.73395488 -16.86328125 140.43359375 C-17.48759033 139.86954834 -18.11189941 139.30550293 -18.75512695 138.72436523 C-22.88610195 134.00814284 -22.64593502 128.92020909 -22.58276367 122.98901367 C-22.58156525 122.10380539 -22.58036682 121.21859711 -22.57913208 120.30656433 C-22.57598731 118.3886478 -22.5686871 116.47073455 -22.5576992 114.55284691 C-22.5428224 111.51306446 -22.54445223 108.47372097 -22.55134583 105.43391418 C-22.57015955 96.79263481 -22.57663641 88.15169669 -22.52954102 79.51049805 C-22.50190107 74.22003028 -22.50831279 68.93052186 -22.53655434 63.64006996 C-22.54080586 61.62871253 -22.5323785 59.61728548 -22.5108242 57.60603905 C-21.82950113 45.40160016 -21.82950113 45.40160016 -26.8059082 34.8293457 C-27.42560989 34.32031204 -28.04531158 33.81127838 -28.68379211 33.28681946 C-32.64927646 29.9764352 -33.24667812 24.86949455 -33.875 20 C-33.60141405 13.95731911 -30.66524166 8.41043837 -26.66015625 3.9765625 C-18.89766942 -2.98759417 -9.55709632 -4.44283551 0 0 Z " fill="#020202" transform="translate(308.375,245.125)"/>
<path d="M0 0 C4.81723508 3.45512033 8.88163257 8.81223181 10.265625 14.625 C11.03592387 21.54565395 10.26878586 26.8512103 6.265625 32.625 C3.578125 35.5625 3.578125 35.5625 1.265625 37.625 C-4.02315722 42.91378222 -2.9649814 58.61860545 -3.484375 66 C-3.5334903 66.68449471 -3.58260559 67.36898941 -3.63320923 68.07422638 C-4.76110925 85.8764226 -2.10517691 99.78337524 9.59783936 113.6434021 C15.94652494 120.81864568 22.73449296 127.49853879 29.765625 134 C30.47106949 134.65250481 31.17651398 135.30500961 31.90333557 135.97728729 C40.78683939 144.14607271 49.90554032 152.00835798 59.265625 159.625 C71.41787613 154.30272442 82.37832779 141.82023952 92.015625 132.875 C92.68633278 132.25311295 93.35704056 131.63122589 94.04807281 130.99049377 C110.27489487 115.80370739 123.39092106 101.98230894 124.45678711 78.92987061 C124.55471762 74.73129373 124.39450913 70.56552913 124.140625 66.375 C124.10227036 65.69244644 124.06391571 65.00989288 124.0243988 64.30665588 C123.88002942 48.82176521 123.88002942 48.82176521 117.71533203 35.49707031 C116.50272705 34.57039551 116.50272705 34.57039551 115.265625 33.625 C110.99500821 28.56352825 109.72830847 23.87731723 109.89453125 17.31640625 C110.82119977 10.59562085 113.93939814 5.28107096 119.265625 1.125 C125.52468921 -2.99341771 130.75450279 -4.41064094 138.265625 -3.375 C146.92818995 -0.64012267 151.38014076 4.37866502 155.640625 12.125 C157.4915691 19.5287764 156.09480597 26.09286776 152.265625 32.625 C150.75705933 33.7085376 150.75705933 33.7085376 149.21801758 34.81396484 C145.46631469 38.53904538 145.58508192 42.47663786 145.51076984 47.56630516 C145.51031524 49.74263046 145.53855234 51.91761925 145.56640625 54.09375 C145.56276915 55.61780805 145.55606232 57.14186158 145.5464325 58.66589355 C145.52739987 62.66858004 145.54136062 66.67039687 145.56494141 70.67303467 C145.59938121 77.07835915 145.59347313 83.48346797 145.5688076 89.8888092 C145.56644552 92.11917045 145.58420266 94.34872018 145.6040802 96.57897949 C145.60432847 97.95434575 145.6039301 99.32971232 145.6027832 100.70507812 C145.60977737 101.89943481 145.61677155 103.0937915 145.62397766 104.32434082 C145.20550139 108.17877725 144.42735545 110.40089783 142.265625 113.625 C140.0401847 115.21392971 137.99346335 116.48671891 135.60693359 117.76782227 C110.17305265 132.42402157 82.29556988 153.44961732 73.265625 182.625 C65.6616542 212.925937 67.74886832 246.47824607 68.453125 277.4375 C68.47630012 278.48971694 68.49947523 279.54193387 68.52335262 280.62603617 C69.14742175 308.3287957 70.42590268 335.9775442 72.265625 363.625 C64.345625 363.625 56.425625 363.625 48.265625 363.625 C48.40853973 361.51286102 48.55145447 359.40072205 48.69869995 357.22457886 C50.45191552 330.66960251 51.54260597 304.10559913 52.140625 277.5 C52.1771053 275.93007671 52.1771053 275.93007671 52.21432257 274.32843781 C55.50024915 207.60803435 55.50024915 207.60803435 27.04693604 149.92648315 C14.0617681 136.45744386 -1.63247449 124.64527393 -18.05429268 115.67745781 C-20.74640554 114.15491449 -22.52871616 112.96743864 -24.13619995 110.29084778 C-24.85928485 107.06832239 -24.96376553 104.15567172 -24.94213867 100.8503418 C-24.94094025 100.18946564 -24.93974182 99.52858948 -24.93850708 98.84768677 C-24.93536829 97.41922781 -24.92808224 95.99077313 -24.9170742 94.56235313 C-24.90215433 92.29543796 -24.90384034 90.02910955 -24.91072083 87.76216125 C-24.92949946 81.31919826 -24.93607618 74.87669224 -24.88891602 68.43383789 C-24.86121511 64.48541865 -24.86773748 60.53828245 -24.89592934 56.5898838 C-24.90016982 55.09208159 -24.89180968 53.59418513 -24.8701992 52.09653282 C-24.58472208 42.27243765 -24.58472208 42.27243765 -29.1652832 33.89379883 C-30.09483574 33.06214958 -30.09483574 33.06214958 -31.04316711 32.21369934 C-34.88676933 28.60306794 -35.58498161 23.78279881 -36.234375 18.75 C-35.94593586 12.64470486 -33.13240855 6.97468609 -28.796875 2.7265625 C-19.60618159 -4.41015019 -10.40030624 -5.75614433 0 0 Z " fill="#030303" transform="translate(479.734375,294.375)"/>
<path d="M0 0 C0.33 0 0.66 0 1 0 C1.15855469 1.21171875 1.31710937 2.4234375 1.48046875 3.671875 C8.70988333 56.56495909 34.01226847 92.0216396 70.875 129 C71.4628125 129.59058197 72.050625 130.18116394 72.65625 130.78964233 C78.35369474 136.50666012 84.04146818 142.13857974 90.18457031 147.38037109 C93.6544613 150.47602155 96.77960232 153.90404883 99.9375 157.3125 C100.63915283 158.06595703 101.34080566 158.81941406 102.0637207 159.59570312 C103.44095689 161.07708931 104.81628695 162.56025051 106.18945312 164.04541016 C107.64359781 165.61524327 109.10905699 167.17459217 110.578125 168.73046875 C127.58108922 187.02439877 140.96893493 208.38047779 153.14639282 230.06915283 C158.83367338 240.17968383 164.87878505 249.83338906 172 259 C172.6909375 259.89332031 173.381875 260.78664063 174.09375 261.70703125 C185.7630259 275.74363976 203.23912777 284.94188572 221.36816406 286.80151367 C235.08884629 287.8362924 249.85615181 288.5646 263 284 C264.07894531 283.64808594 265.15789062 283.29617188 266.26953125 282.93359375 C293.49818652 273.32907391 306.7388675 250.80741206 320.41796875 227.078125 C330.21885916 210.08848169 340.63644696 194.22585471 353 179 C353.57492187 178.28070312 354.14984375 177.56140625 354.7421875 176.8203125 C356.11061362 175.15601046 357.5425036 173.58632678 359 172 C359.48831299 171.40106934 359.97662598 170.80213867 360.47973633 170.18505859 C363.59253046 166.85271898 365.89189514 165.18107617 370.46166992 164.43432617 C374.49722653 164.31174433 378.46938102 164.38690587 382.5 164.5625 C383.90877633 164.59767079 385.31763753 164.62959966 386.7265625 164.65820312 C390.15322833 164.74034922 393.57550517 164.85519097 397 165 C395.17536291 168.97089617 392.56528827 171.58088816 389.4375 174.5625 C384.67450139 179.21294195 380.33855312 184.0217633 376.19921875 189.24609375 C373.93232159 192.08474827 371.56422811 194.81547085 369.1875 197.5625 C357.92889478 211.07282626 349.21794813 226.44281131 340.48046875 241.64355469 C323.35321166 271.36622164 304.54146296 298.55737427 269.828125 308.26171875 C268.89484375 308.50535156 267.9615625 308.74898437 267 309 C265.87851562 309.31904297 265.87851562 309.31904297 264.734375 309.64453125 C247.67035321 314.31362383 226.20815472 313.77105658 209 310 C207.81148437 309.75507812 206.62296875 309.51015625 205.3984375 309.2578125 C177.2642524 302.67569466 157.34947579 283.57552888 142.27563477 259.65966797 C137.26521937 251.58638513 132.4833865 243.39851627 127.8125 235.125 C111.97184564 207.07895481 91.38472507 183.17522295 68.64672852 160.51635742 C66.80041754 158.67545292 64.95957727 156.82919728 63.11914062 154.98242188 C57.75383486 149.61432132 52.39434648 144.30988095 46.61254883 139.38549805 C40.499606 134.13327238 34.97138555 128.14740735 29.75 122.01953125 C28.55108204 120.63595851 27.31976535 119.27999357 26.0625 117.94921875 C-1.74025941 88.35767887 -22.73490899 46.31821678 -22 5 C-21.360625 5.804375 -20.72125 6.60875 -20.0625 7.4375 C-18.59396498 9.2750504 -18.59396498 9.2750504 -17 11 C-11.3952291 11.21326403 -11.3952291 11.21326403 -6 10 C-6 10.66 -6 11.32 -6 12 C-4.02 12 -2.04 12 0 12 C0 8.04 0 4.08 0 0 Z " fill="#020202" transform="translate(304,537)"/>
<path d="M0 0 C1.15741998 0.95328541 2.31497463 1.90640734 3.47265625 2.859375 C15.84466878 13.1516834 27.06738179 24.32441175 37 37 C37.97562944 38.19973776 38.95364441 39.39753815 39.93359375 40.59375 C53.85800488 57.64618765 53.85800488 57.64618765 57 64 C56.60919306 67.55193085 55.13217684 69.22409652 52.62109375 71.671875 C51.61079102 72.66767578 51.61079102 72.66767578 50.58007812 73.68359375 C49.87302734 74.36550781 49.16597656 75.04742187 48.4375 75.75 C47.72658203 76.44738281 47.01566406 77.14476562 46.28320312 77.86328125 C44.52869286 79.5824658 42.76756648 81.29425872 41 83 C38.03742137 80.22378748 35.90490229 77.47183788 33.8125 74 C19.28245498 50.73958822 -0.56165731 28.86335662 -23 13 C-23.59200195 12.57960449 -24.18400391 12.15920898 -24.79394531 11.72607422 C-46.00524257 -3.18266286 -68.99507356 -14.08267415 -94 -21 C-94.83499023 -21.23203125 -95.66998047 -21.4640625 -96.53027344 -21.703125 C-127.35902256 -30.08239996 -163.67424281 -31.85062964 -195 -25 C-196.79019931 -24.64369982 -198.58057294 -24.28827472 -200.37109375 -23.93359375 C-232.51640077 -17.32697419 -262.3214556 -3.45285679 -288 17 C-288.97710937 17.77214844 -289.95421875 18.54429687 -290.9609375 19.33984375 C-305.92629341 31.44273869 -319.77036684 45.35445082 -331 61 C-331.77561279 62.07290283 -331.77561279 62.07290283 -332.56689453 63.16748047 C-339.62048783 72.86101314 -339.62048783 72.86101314 -346 83 C-350.3098122 79.43972036 -354.45091999 75.73018041 -358.5 71.875 C-359.81484375 70.63363281 -359.81484375 70.63363281 -361.15625 69.3671875 C-363 67 -363 67 -362.99609375 65.03515625 C-350.93602495 40.39478038 -327.47721136 16.59980594 -306 0 C-304.68845807 -1.03993087 -303.37728726 -2.08032989 -302.06640625 -3.12109375 C-293.0931689 -10.18451799 -283.99520365 -16.48195986 -274 -22 C-272.83259277 -22.65331299 -272.83259277 -22.65331299 -271.64160156 -23.31982422 C-191.02561279 -68.1465817 -84.74496911 -63.29878571 0 0 Z " fill="#020202" transform="translate(693,284)"/>
<path d="M0 0 C1.91600505 0.01508155 3.83202164 0.02876378 5.74804688 0.04101562 C10.39482169 0.07372909 15.04102995 0.12531747 19.6875 0.1875 C17.47652357 6.20205226 14.06854373 11.51805424 10.76782227 16.97827148 C9.64251861 18.84592457 8.53306477 20.72238264 7.42382812 22.59960938 C2.86890096 30.206141 -2.06785346 36.83127414 -8.3125 43.1875 C-8.95630615 43.85136719 -9.6001123 44.51523437 -10.26342773 45.19921875 C-14.19213611 49.13193777 -18.70656866 51.61524698 -23.6875 54 C-24.28771973 54.29028076 -24.88793945 54.58056152 -25.50634766 54.87963867 C-33.8492774 58.65254885 -42.41216393 59.49072326 -51.4765625 59.3828125 C-52.39464691 59.3799826 -53.31273132 59.37715271 -54.25863647 59.37423706 C-57.15173136 59.36316399 -60.04450086 59.33808467 -62.9375 59.3125 C-64.91536007 59.30245352 -66.89322506 59.29333061 -68.87109375 59.28515625 C-73.68501859 59.26326705 -78.4987044 59.22882832 -83.3125 59.1875 C-56.91927574 10.45566274 -56.91927574 10.45566274 -31.76025391 2.36694336 C-21.21122342 -0.451385 -10.84101888 -0.14951184 0 0 Z " fill="#FBFBFB" transform="translate(698.3125,574.8125)"/>
<path d="M0 0 C5.1370946 -0.07524476 10.27385498 -0.12910777 15.41137695 -0.16479492 C17.15199383 -0.17970213 18.89257438 -0.20003508 20.63305664 -0.22631836 C42.69926891 -0.55072794 60.7839888 2.76195283 77.625 18.125 C87.07776451 28.13512091 93.53689265 41.7995023 100.47265625 53.58203125 C100.96000244 54.40936768 101.44734863 55.2367041 101.94946289 56.08911133 C103 58 103 58 103 59 C97.25661983 59.07492869 91.51353281 59.12896511 85.76977539 59.16479492 C83.82148269 59.17975333 81.8732229 59.20012747 79.92504883 59.22631836 C60.52180816 59.48037876 43.17464444 57.59453993 28.18920898 43.96582031 C21.60022822 37.53430665 16.84309623 30.10179314 12.25732422 22.16894531 C10.9232891 19.86766997 9.56015713 17.5854691 8.19140625 15.3046875 C1.19982471 3.59947412 1.19982471 3.59947412 0 0 Z " fill="#FCFCFC" transform="translate(362,575)"/>
<path d="M0 0 C12.86447622 11.64795772 12.86447622 11.64795772 17 19 C16.85546875 21.0625 16.85546875 21.0625 16 23 C14.265625 24.4453125 14.265625 24.4453125 12 25 C9.484375 23.8046875 9.484375 23.8046875 6.75 21.875 C5.76902344 21.215 4.78804687 20.555 3.77734375 19.875 C2.86082031 19.25625 1.94429687 18.6375 1 18 C-4.0186882 14.91781573 -9.41055873 13.10281284 -15 11.3125 C-15.66475342 11.09770996 -16.32950684 10.88291992 -17.0144043 10.66162109 C-25.29484499 8.11426309 -33.33548241 7.83967344 -41.9375 7.875 C-42.87529297 7.87113281 -43.81308594 7.86726562 -44.77929688 7.86328125 C-53.81941657 7.8758457 -62.02751665 8.61981916 -70.625 11.5 C-71.39336182 11.75410645 -72.16172363 12.00821289 -72.95336914 12.27001953 C-79.91163032 14.71053416 -85.91045338 18.22271362 -92.05859375 22.2421875 C-95 24 -95 24 -98 24 C-98.99 23.34 -99.98 22.68 -101 22 C-99.21281316 12.25765222 -88.06053384 2.36032563 -80.32910156 -3.20214844 C-55.48118138 -19.5099129 -23.28278219 -19.40818909 0 0 Z " fill="#040404" transform="translate(582,756)"/>
<path d="M0 0 C0 9.9 0 19.8 0 30 C0.66 30.33 1.32 30.66 2 31 C-1.67434271 33.44956181 -3.28307711 33.17288758 -7.64453125 33.01953125 C-8.96130859 32.99052734 -10.27808594 32.96152344 -11.63476562 32.93164062 C-13.72204891 32.87600915 -15.80827696 32.81266191 -17.89477539 32.73266602 C-26.97120089 32.00376434 -26.97120089 32.00376434 -34.94921875 35.51171875 C-35.62597656 36.33285156 -36.30273438 37.15398438 -37 38 C-35.58261511 34.74792908 -33.87473588 32.68638933 -31.3125 30.25 C-28.57844817 27.58984146 -25.98112784 24.89750102 -23.5 22 C-18.04427583 15.67828787 -12.10867722 9.96298805 -5.76171875 4.54296875 C-3.97488764 3.0170786 -3.97488764 3.0170786 -2.33203125 1.30078125 C-1 0 -1 0 0 0 Z " fill="#050505" transform="translate(702,670)"/>
<path d="M0 0 C9.36242588 8.02493647 18.44405738 16.12620123 26.8125 25.1875 C27.59500122 26.03453491 27.59500122 26.03453491 28.39331055 26.89868164 C32 30.86402034 32 30.86402034 32 32 C22.1 32 12.2 32 2 32 C1.67 32.66 1.34 33.32 1 34 C0.01 32.68 -0.98 31.36 -2 30 C-1.34 30 -0.68 30 0 30 C0 20.1 0 10.2 0 0 Z " fill="#040404" transform="translate(378,670)"/>
<path d="M0 0 C0.33 0 0.66 0 1 0 C1 28.05 1 56.1 1 85 C3.31 85 5.62 85 8 85 C6.515 85.495 6.515 85.495 5 86 C4.30062468 87.31647119 3.63270867 88.65022151 3 90 C-0.45237926 91.72618963 -4.21817204 91.359241 -8 91 C-11 89.8125 -11 89.8125 -13 88 C-13.8125 85.3125 -13.8125 85.3125 -14 83 C-12.00045254 82.95745644 -9.99958364 82.95919217 -8 83 C-7.67 83.33 -7.34 83.66 -7 84 C-5.00041636 84.04080783 -2.99954746 84.04254356 -1 84 C-1 82.68 -1 81.36 -1 80 C-1.495 80.495 -1.495 80.495 -2 81 C-9.22962963 81.59259259 -9.22962963 81.59259259 -12.4375 79.125 C-15.52683696 74.92350174 -15.76600718 71.10671454 -15 66 C-12.9375 62.9375 -12.9375 62.9375 -10 61 C-6.53855822 60.64798897 -4.13871188 60.43064406 -1 62 C-0.67 41.54 -0.34 21.08 0 0 Z " fill="#1C1C1C" transform="translate(406,468)"/>
<path d="M0 0 C5.85711163 0.32663233 9.76138386 2.17801234 14.6875 5.25 C15.33783203 5.63285156 15.98816406 6.01570312 16.65820312 6.41015625 C20.55229164 8.78392275 23.53702559 11.05801863 26 15 C26.9569802 19.56676578 26.85398448 23.67157969 24.3125 27.625 C21.51821453 29.28646704 20.20887615 29.38508909 17 29 C14.88769531 27.47119141 14.88769531 27.47119141 12.828125 25.3515625 C12.08175781 24.59359375 11.33539062 23.835625 10.56640625 23.0546875 C9.80199219 22.25289062 9.03757812 21.45109375 8.25 20.625 C7.47011719 19.8309375 6.69023438 19.036875 5.88671875 18.21875 C-1.14287568 11.00577484 -1.14287568 11.00577484 -1.125 5.4375 C-1.12886719 4.22900391 -1.12886719 4.22900391 -1.1328125 2.99609375 C-1 1 -1 1 0 0 Z " fill="#050505" transform="translate(506,689)"/>
<path d="M0 0 C1.52951026 1.52951026 1.3539351 2.93360414 1.5 5.0625 C1.4203651 10.11135266 -0.3192527 12.37228567 -3.80078125 15.875 C-4.52652344 16.57625 -5.25226562 17.2775 -6 18 C-7.22783203 19.3303125 -7.22783203 19.3303125 -8.48046875 20.6875 C-16.0227793 28.7204601 -16.0227793 28.7204601 -22 29 C-24.375 27.6875 -24.375 27.6875 -26 25 C-26.93868028 19.86796293 -26.93801636 16.38992059 -23.96484375 11.984375 C-20.82070959 8.49711208 -17.09354769 6.34548528 -13 4.125 C-12.30132813 3.7228125 -11.60265625 3.320625 -10.8828125 2.90625 C-7.18343524 0.85414261 -4.35572089 -0.67645665 0 0 Z " fill="#050505" transform="translate(574,689)"/>
<path d="M0 0 C0.33 0 0.66 0 1 0 C1.02501716 4.76480746 1.04300757 9.52957534 1.05493164 14.29443359 C1.05991102 15.91000028 1.06669694 17.52556258 1.07543945 19.14111328 C1.12466635 28.48264173 1.01553142 37.69878551 0 47 C-1.98 47 -3.96 47 -6 47 C-6 46.34 -6 45.68 -6 45 C-6.99 45.66 -7.98 46.32 -9 47 C-13.60238063 47.52814204 -16.67128462 47.70217809 -20.5 44.9375 C-23 42 -23 42 -23.375 38.1875 C-23.25125 37.135625 -23.1275 36.08375 -23 35 C-22.34 35 -21.68 35 -21 35 C-20.896875 34.236875 -20.79375 33.47375 -20.6875 32.6875 C-19.64768683 28.6227758 -19.64768683 28.6227758 -17 27 C-14.19930463 26.63269569 -11.86141521 26.77290355 -9 27 C-8.34 27.66 -7.68 28.32 -7 29 C-6.67 28.34 -6.34 27.68 -6 27 C-4.02 27 -2.04 27 0 27 C0 18.09 0 9.18 0 0 Z " fill="#272727" transform="translate(304,502)"/>
<path d="M0 0 C0.33 0 0.66 0 1 0 C1 18.15 1 36.3 1 55 C3.31 55 5.62 55 8 55 C10.98356441 56.81608269 12.61660986 57.93830422 13.8125 61.25 C13.874375 61.8275 13.93625 62.405 14 63 C6.57142857 63.28571429 6.57142857 63.28571429 3 61 C3 61.99 3 62.98 3 64 C4.06541016 64.52400391 4.06541016 64.52400391 5.15234375 65.05859375 C6.07144531 65.51363281 6.99054687 65.96867188 7.9375 66.4375 C8.85402344 66.88996094 9.77054688 67.34242188 10.71484375 67.80859375 C13 69 13 69 14 70 C14.35345775 73.7466522 14.50023653 76.15177284 12.5625 79.4375 C8.78993176 81.73784649 5.30933841 81.33148757 1 81 C0.67 81.99 0.34 82.98 0 84 C0 56.28 0 28.56 0 0 Z " fill="#2E2E2E" transform="translate(673,468)"/>
<path d="M0 0 C2 2 2 2 2.20254517 4.13870239 C2.18033905 5.0225058 2.15813293 5.9063092 2.13525391 6.81689453 C2.11470947 7.83178955 2.09416504 8.84668457 2.07299805 9.89233398 C2.02526245 11.49637085 2.02526245 11.49637085 1.9765625 13.1328125 C1.95489014 14.1137085 1.93321777 15.09460449 1.91088867 16.10522461 C1.82672308 19.77875496 1.72478007 23.4518606 1.625 27.125 C1.41875 35.33375 1.2125 43.5425 1 52 C18.49 52 35.98 52 54 52 C54 52.66 54 53.32 54 54 C36.51 54 19.02 54 1 54 C1 71.49 1 88.98 1 107 C0.67 107 0.34 107 0 107 C0 89.51 0 72.02 0 54 C-17.49 54 -34.98 54 -53 54 C-53 53.34 -53 52.68 -53 52 C-35.84 51.67 -18.68 51.34 -1 51 C-0.67 34.17 -0.34 17.34 0 0 Z " fill="#F1F1F1" transform="translate(701,325)"/>
<path d="M0 0 C8.91 0 17.82 0 27 0 C27 2.31 27 4.62 27 7 C24.69 7.33 22.38 7.66 20 8 C20.33 9.65 20.66 11.3 21 13 C14.07 13 7.14 13 0 13 C0.33 11.35 0.66 9.7 1 8 C0.67 7.67 0.34 7.34 0 7 C0 4.69 0 2.38 0 0 Z " fill="#1E1E1E" transform="translate(530,242)"/>
<path d="M0 0 C2.9375 1.875 2.9375 1.875 5 5 C5.89844028 9.80744359 5.60739118 13.67958439 3.5625 18.125 C-0.17711569 20.86130416 -3.51547301 20.43120452 -8 20 C-8 19.34 -8 18.68 -8 18 C-8.66 18 -9.32 18 -10 18 C-10 18.66 -10 19.32 -10 20 C-10.66 20 -11.32 20 -12 20 C-11.505 11.09 -11.505 11.09 -11 2 C-6.68696187 -0.15651907 -4.72764004 -0.58058737 0 0 Z " fill="#1F1F1F" transform="translate(786,529)"/>
<path d="M0 0 C6.93 0 13.86 0 21 0 C20.34 1.65 19.68 3.3 19 5 C19.66 5.33 20.32 5.66 21 6 C21 7.98 21 9.96 21 12 C12.09 12 3.18 12 -6 12 C-6 9.69 -6 7.38 -6 5 C-2.535 4.505 -2.535 4.505 1 4 C0.67 2.68 0.34 1.36 0 0 Z " fill="#1E1E1E" transform="translate(529,825)"/>
<path d="M0 0 C2.80752763 1.28179671 4.87296886 2.61927094 7.06256104 4.78840637 C7.92905273 5.63993538 7.92905273 5.63993538 8.81304932 6.50866699 C9.43451843 7.12947144 10.05598755 7.75027588 10.69628906 8.38989258 C11.36011597 9.04539597 12.02394287 9.70089935 12.70788574 10.37626648 C14.89927764 12.54357262 17.08294351 14.71845523 19.265625 16.89453125 C20.78440769 18.40434908 22.30326862 19.9140882 23.82220459 21.42375183 C27.00336866 24.588429 30.18011447 27.75747167 33.35449219 30.92895508 C37.42732403 34.99639258 41.51607493 39.0474173 45.60895157 43.0946703 C48.75028932 46.20630783 51.88035569 49.32909659 55.00737762 52.45511436 C56.51042987 53.95395314 58.01761487 55.44865917 59.52893829 56.93915749 C61.63836597 59.02180904 63.73150116 61.11959143 65.82128906 63.22192383 C66.4508551 63.83665558 67.08042114 64.45138733 67.72906494 65.08474731 C71.91291933 69.34072558 71.91291933 69.34072558 72.38616943 72.92362976 C72.25873352 73.60883194 72.13129761 74.29403412 72 75 C71.47811096 74.31479782 70.95622192 73.62959564 70.41851807 72.92362976 C67.5664372 69.47588686 64.48236354 66.36611656 61.30371094 63.22192383 C60.63988403 62.56116348 59.97605713 61.90040314 59.29211426 61.21961975 C57.85707633 59.79171162 56.42091743 58.36492936 54.98375702 56.93915749 C52.71237544 54.68520045 50.44458656 52.42768616 48.17779541 50.16911316 C41.73473716 43.7504888 35.28603249 37.33755909 28.83300781 30.92895508 C24.88200815 27.0046572 20.93582653 23.07556845 16.99262238 19.14343834 C15.48733049 17.64437246 13.98014171 16.14720895 12.47106171 14.65195656 C10.36908995 12.56908766 8.27324554 10.48023618 6.17871094 8.38989258 C5.5491449 7.76908813 4.91957886 7.14828369 4.27093506 6.50866699 C0 2.22789754 0 2.22789754 0 0 Z " fill="#1C1C1C" transform="translate(427,577)"/>
<path d="M0 0 C0.33 0 0.66 0 1 0 C1 28.05 1 56.1 1 85 C3.31 85 5.62 85 8 85 C6.515 85.495 6.515 85.495 5 86 C4.30062468 87.31647119 3.63270867 88.65022151 3 90 C-0.45237926 91.72618963 -4.21817204 91.359241 -8 91 C-11 89.8125 -11 89.8125 -13 88 C-13.8125 85.3125 -13.8125 85.3125 -14 83 C-12.00045254 82.95745644 -9.99958364 82.95919217 -8 83 C-7.67 83.33 -7.34 83.66 -7 84 C-5.02 84 -3.04 84 -1 84 C-0.67 56.28 -0.34 28.56 0 0 Z " fill="#3B3B3B" transform="translate(406,468)"/>
<path d="M0 0 C1.18916016 0.02707031 1.18916016 0.02707031 2.40234375 0.0546875 C4.35208348 0.10166918 6.30119878 0.17340956 8.25 0.25 C8.25 2.23 8.25 4.21 8.25 6.25 C3.63 6.58 -0.99 6.91 -5.75 7.25 C-6.08 8.24 -6.41 9.23 -6.75 10.25 C-3.12 10.25 0.51 10.25 4.25 10.25 C4.25 10.58 4.25 10.91 4.25 11.25 C1.60409986 11.27684679 -1.04153096 11.29676357 -3.6875 11.3125 C-4.81961914 11.32506836 -4.81961914 11.32506836 -5.97460938 11.33789062 C-7.89994313 11.34652441 -9.82535581 11.30224333 -11.75 11.25 C-12.75 10.25 -12.75 10.25 -13.0625 7.4375 C-12.75 4.25 -12.75 4.25 -11.27734375 2.06640625 C-7.58437367 -0.58773763 -4.42420497 -0.19076174 0 0 Z " fill="#202020" transform="translate(541.75,751.75)"/>
<path d="M0 0 C-0.61875 0.0825 -1.2375 0.165 -1.875 0.25 C-4.17469437 0.78131326 -4.17469437 0.78131326 -4.9375 2.9375 C-6 5 -6 5 -8.125 6.3125 C-12.9254044 7.46042279 -17.20328785 7.03310949 -21.5 4.5625 C-23 3 -23 3 -23 1 C-24.32 0.67 -25.64 0.34 -27 0 C-18.16197094 -1.68343411 -8.82679919 -1.6928108 0 0 Z " fill="#2B2B2B" transform="translate(553,742)"/>
<path d="M0 0 C0 6.6 0 13.2 0 20 C-6.01648352 17.59340659 -6.01648352 17.59340659 -8 13 C-8.60682436 8.92560787 -8.17542136 7.30991106 -6.125 3.6875 C-3.20930233 0 -3.20930233 0 0 0 Z " fill="#1B1B1B" transform="translate(697,529)"/>
<path d="M0 0 C3 3 3 3 3.32279968 5.22099304 C3.29837296 6.08481094 3.27394623 6.94862885 3.2487793 7.83862305 C3.22853195 8.8194133 3.20828461 9.80020355 3.18742371 10.81071472 C3.15006607 11.86704605 3.11270844 12.92337738 3.07421875 14.01171875 C3.04777786 15.09508011 3.02133698 16.17844147 2.99409485 17.29463196 C2.9062293 20.7594754 2.79711346 24.22328292 2.6875 27.6875 C2.62425205 30.03446792 2.56238565 32.38147352 2.50195312 34.72851562 C2.35067192 40.48621032 2.18193349 46.24319678 2 52 C1.34 52 0.68 52 0 52 C0 34.84 0 17.68 0 0 Z " fill="#F1F1F1" transform="translate(378,703)"/>
<path d="M0 0 C0.66 0.33 1.32 0.66 2 1 C2 10.9 2 20.8 2 31 C11.57 30.67 21.14 30.34 31 30 C31.495 30.99 31.495 30.99 32 32 C22.1 32 12.2 32 2 32 C1.67 32.66 1.34 33.32 1 34 C0.01 32.68 -0.98 31.36 -2 30 C-1.34 30 -0.68 30 0 30 C0 20.1 0 10.2 0 0 Z " fill="#202020" transform="translate(378,670)"/>
<path d="M0 0 C1.65 0 3.3 0 5 0 C5.16677223 8.04212755 4.6466598 15.98603754 4 24 C3.67 22.68 3.34 21.36 3 20 C2.01 20 1.02 20 0 20 C0 13.4 0 6.8 0 0 Z " fill="#1F1F1F" transform="translate(794,529)"/>
<path d="M0 0 C0 2.97 0 5.94 0 9 C-4.62 9 -9.24 9 -14 9 C-7.3125 -0.15896739 -7.3125 -0.15896739 0 0 Z " fill="#1F1F1F" transform="translate(541,840)"/>
<path d="M0 0 C5 4 5 4 5.48828125 7.890625 C5.45523738 9.3445554 5.39586963 10.79808575 5.3125 12.25 C5.28994141 12.99507812 5.26738281 13.74015625 5.24414062 14.5078125 C5.18543561 16.339409 5.09575757 18.16996653 5 20 C3.35 20 1.7 20 0 20 C0 13.4 0 6.8 0 0 Z " fill="#1D1D1D" transform="translate(383,529)"/>
<path d="M0 0 C6.6 0 13.2 0 20 0 C20 0.33 20 0.66 20 1 C17.03 1 14.06 1 11 1 C10.67 2.32 10.34 3.64 10 5 C7.5362851 7.5549636 6.33770169 7.98051721 2.75 8.1875 C1.8425 8.125625 0.935 8.06375 0 8 C0 5.36 0 2.72 0 0 Z " fill="#252525" transform="translate(539,231)"/>
<path d="M0 0 C0.33 0 0.66 0 1 0 C1 9.9 1 19.8 1 30 C1.66 30.33 2.32 30.66 3 31 C-0.67434271 33.44956181 -2.28307711 33.17288758 -6.64453125 33.01953125 C-7.96130859 32.99052734 -9.27808594 32.96152344 -10.63476562 32.93164062 C-12.72204891 32.87600915 -14.80827696 32.81266191 -16.89477539 32.73266602 C-25.97120089 32.00376434 -25.97120089 32.00376434 -33.94921875 35.51171875 C-34.62597656 36.33285156 -35.30273438 37.15398438 -36 38 C-34.4923809 34.16242412 -32.41303129 32.27084155 -29 30 C-25.86206055 29.54589844 -25.86206055 29.54589844 -22.38671875 29.609375 C-20.70002075 29.62436035 -20.70002075 29.62436035 -18.97924805 29.63964844 C-16.85483276 29.69427246 -16.85483276 29.69427246 -14.6875 29.75 C-10.170625 29.8325 -5.65375 29.915 -1 30 C-0.67 20.1 -0.34 10.2 0 0 Z " fill="#232323" transform="translate(701,670)"/>
<path d="M0 0 C1.1446875 0.3403125 1.1446875 0.3403125 2.3125 0.6875 C3.64091008 6.12190487 3.64091008 6.12190487 2.1875 8.625 C0.3125 9.6875 0.3125 9.6875 -2.375 9.375 C-3.138125 9.148125 -3.90125 8.92125 -4.6875 8.6875 C-6.01591008 3.25309513 -6.01591008 3.25309513 -4.5625 0.75 C-2.6875 -0.3125 -2.6875 -0.3125 0 0 Z " fill="#020202" transform="translate(781.6875,534.3125)"/>
<path d="M0 0 C4.55555556 0.55555556 4.55555556 0.55555556 6 2 C6.1875 4.9375 6.1875 4.9375 6 8 C5.34 8.66 4.68 9.32 4 10 C-0.55555556 9.44444444 -0.55555556 9.44444444 -2 8 C-2.1875 5.0625 -2.1875 5.0625 -2 2 C-1.34 1.34 -0.68 0.68 0 0 Z " fill="#020202" transform="translate(291,534)"/>
<path d="M0 0 C2.625 0.375 2.625 0.375 5 1 C5.33 3.31 5.66 5.62 6 8 C3 10 3 10 0.875 9.6875 C-1 9 -1 9 -2 8 C-2.1875 5.0625 -2.1875 5.0625 -2 2 C-1.34 1.34 -0.68 0.68 0 0 Z " fill="#010101" transform="translate(400,534)"/>
<path d="M0 0 C2.47923801 -0.02685095 4.9581884 -0.04676547 7.4375 -0.0625 C8.14455078 -0.07087891 8.85160156 -0.07925781 9.58007812 -0.08789062 C11.38693559 -0.09653588 13.19387603 -0.05220011 15 0 C16 1 16 1 16.0625 4.5625 C16.041875 5.696875 16.02125 6.83125 16 8 C13.08482708 6.92598892 11.22189824 6.22189824 9 4 C9 3.01 9 2.02 9 1 C6.03 1 3.06 1 0 1 C0 0.67 0 0.34 0 0 Z " fill="#282828" transform="translate(522,231)"/>
<path d="M0 0 C2.79828356 0.38597015 3.8205884 0.80136573 5.75 2.9375 C7 5 7 5 7 7 C8.32 7.33 9.64 7.66 11 8 C7.7 8 4.4 8 1 8 C-0.35439668 5.29120665 -0.06501451 2.99066732 0 0 Z " fill="#282828" transform="translate(543,841)"/>
<path d="M0 0 C0.66 0 1.32 0 2 0 C2 7.59 2 15.18 2 23 C-1 20 -1 20 -1.2487793 17.82348633 C-1.19117432 17.00130615 -1.13356934 16.17912598 -1.07421875 15.33203125 C-1.01943359 14.43935547 -0.96464844 13.54667969 -0.90820312 12.62695312 C-0.83537109 11.69818359 -0.76253906 10.76941406 -0.6875 9.8125 C-0.62626953 8.87212891 -0.56503906 7.93175781 -0.50195312 6.96289062 C-0.34870489 4.64059043 -0.1808714 2.32028542 0 0 Z " fill="#EEEEEE" transform="translate(378,648)"/>
<path d="M0 0 C0.33 1.65 0.66 3.3 1 5 C-1.97 5 -4.94 5 -8 5 C-8 3.68 -8 2.36 -8 1 C-5.29120665 -0.35439668 -2.99066732 -0.06501451 0 0 Z " fill="#010101" transform="translate(544,249)"/>
<path d="M0 0 C-1.58667578 3.90285767 -4.13350481 6.33520982 -7.125 9.25 C-8.03507812 10.14203125 -8.94515625 11.0340625 -9.8828125 11.953125 C-10.58148438 12.62859375 -11.28015625 13.3040625 -12 14 C-12.66 13.34 -13.32 12.68 -14 12 C-12.04761147 9.99387601 -10.08862178 7.99507567 -8.125 6 C-7.29162109 5.14148438 -7.29162109 5.14148438 -6.44140625 4.265625 C-2.2265625 0 -2.2265625 0 0 0 Z " fill="#1D1D1D" transform="translate(503,426)"/>
<path d="M0 0 C2.97 0 5.94 0 9 0 C8.67 1.32 8.34 2.64 8 4 C5.69 4 3.38 4 1 4 C0.67 2.68 0.34 1.36 0 0 Z " fill="#010101" transform="translate(535,826)"/>
<path d="M0 0 C2.4375 0.75 2.4375 0.75 5 2 C5.8125 4.125 5.8125 4.125 6 6 C4.35 6 2.7 6 1 6 C0.67 4.02 0.34 2.04 0 0 Z " fill="#010101" transform="translate(674,538)"/>
<path d="M0 0 C0.33 0 0.66 0 1 0 C1 3.3 1 6.6 1 10 C0.01 9.67 -0.98 9.34 -2 9 C-2 6.69 -2 4.38 -2 2 C-1.34 2 -0.68 2 0 2 C0 1.34 0 0.68 0 0 Z " fill="#252525" transform="translate(531,704)"/>
<path d="M0 0 C0.66 0.33 1.32 0.66 2 1 C2 3.64 2 6.28 2 9 C1.01 9 0.02 9 -1 9 C-1.09765625 2.84765625 -1.09765625 2.84765625 -1 1 C-0.67 0.67 -0.34 0.34 0 0 Z " fill="#0A0A0A" transform="translate(542,840)"/>
</svg>
